<svg xmlns="http://www.w3.org/2000/svg" viewBox="0 0 512 512" width="512" height="512" role="img" aria-label="darkroom">
  <defs>
    <linearGradient id="tile" x1="0" y1="0" x2="0" y2="1">
      <stop offset="0" stop-color="#2e2e2e"/>
      <stop offset="1" stop-color="#191919"/>
    </linearGradient>
    <linearGradient id="node" x1="0" y1="0" x2="0" y2="1">
      <stop offset="0" stop-color="#4c4c4c"/>
      <stop offset="1" stop-color="#363636"/>
    </linearGradient>
    <linearGradient id="header" x1="0" y1="0" x2="0" y2="1">
      <stop offset="0" stop-color="#ff7d66"/>
      <stop offset="1" stop-color="#ed4f35"/>
    </linearGradient>
    <radialGradient id="safelight" cx="0.5" cy="0.5" r="0.5">
      <stop offset="0" stop-color="#ff5e44" stop-opacity="0.5"/>
      <stop offset="0.55" stop-color="#ff5e44" stop-opacity="0.12"/>
      <stop offset="1" stop-color="#ff5e44" stop-opacity="0"/>
    </radialGradient>
    <clipPath id="nodeclip">
      <rect x="124" y="106" width="264" height="300" rx="42"/>
    </clipPath>
  </defs>

  <!-- app tile -->
  <rect x="0" y="0" width="512" height="512" rx="112" fill="url(#tile)"/>
  <rect x="2" y="2" width="508" height="508" rx="110" fill="none" stroke="#000" stroke-opacity="0.35" stroke-width="4"/>

  <!-- safelight glow -->
  <ellipse cx="256" cy="256" rx="220" ry="220" fill="url(#safelight)"/>

  <!-- connection halos -->
  <g fill="none" stroke-linecap="round" stroke-width="54" opacity="0.16">
    <path d="M58,186 C92,186 96,216 124,216" stroke="#9adbfb"/>
    <path d="M58,326 C92,326 96,296 124,296" stroke="#daff58"/>
    <path d="M388,256 H462" stroke="#ff5e44"/>
  </g>
  <!-- connections: two in, one out (bold + short so they survive downscaling) -->
  <g fill="none" stroke-linecap="round" stroke-width="34">
    <path d="M58,186 C92,186 96,216 124,216" stroke="#9adbfb"/>
    <path d="M58,326 C92,326 96,296 124,296" stroke="#daff58"/>
    <path d="M388,256 H462" stroke="#ff5e44"/>
  </g>

  <!-- node body -->
  <rect x="124" y="106" width="264" height="300" rx="42" fill="url(#node)" stroke="#6a6a6a" stroke-width="5"/>
  <g clip-path="url(#nodeclip)">
    <rect x="124" y="106" width="264" height="58" fill="url(#header)"/>
  </g>

  <!-- ports: 2 inputs (left), 1 output (right) -->
  <g stroke="#262626" stroke-width="6">
    <circle cx="124" cy="216" r="30" fill="#9adbfb"/>
    <circle cx="124" cy="296" r="30" fill="#daff58"/>
    <circle cx="388" cy="256" r="30" fill="#ff5e44"/>
  </g>
</svg>
