<svg xmlns="http://www.w3.org/2000/svg" viewBox="0 0 512 512" width="512" height="512" role="img" aria-label="darkroom">
  <defs>
    <linearGradient id="tile" x1="0" y1="0" x2="0" y2="1">
      <stop offset="0" stop-color="#2e2e2e"/>
      <stop offset="1" stop-color="#191919"/>
    </linearGradient>
    <linearGradient id="node" x1="0" y1="0" x2="0" y2="1">
      <stop offset="0" stop-color="#3e3e3e"/>
      <stop offset="1" stop-color="#2c2c2c"/>
    </linearGradient>
    <linearGradient id="header" x1="0" y1="0" x2="0" y2="1">
      <stop offset="0" stop-color="#ff7d66"/>
      <stop offset="1" stop-color="#ee5137"/>
    </linearGradient>
    <radialGradient id="safelight" cx="0.5" cy="0.5" r="0.5">
      <stop offset="0" stop-color="#ff5e44" stop-opacity="0.5"/>
      <stop offset="0.55" stop-color="#ff5e44" stop-opacity="0.12"/>
      <stop offset="1" stop-color="#ff5e44" stop-opacity="0"/>
    </radialGradient>
    <clipPath id="nodeclip">
      <rect x="158" y="150" width="196" height="212" rx="30"/>
    </clipPath>
  </defs>

  <!-- app tile -->
  <rect x="0" y="0" width="512" height="512" rx="112" fill="url(#tile)"/>
  <rect x="1.5" y="1.5" width="509" height="509" rx="110.5" fill="none" stroke="#000" stroke-opacity="0.35" stroke-width="3"/>

  <!-- safelight glow -->
  <ellipse cx="256" cy="256" rx="205" ry="205" fill="url(#safelight)"/>

  <!-- connection halos -->
  <g fill="none" stroke-linecap="round" stroke-width="30" opacity="0.16">
    <path d="M86,204 C118,204 126,228 158,228" stroke="#9adbfb"/>
    <path d="M86,308 C118,308 126,284 158,284" stroke="#daff58"/>
    <path d="M354,256 H426" stroke="#ff5e44"/>
  </g>
  <!-- connections: two in, one out -->
  <g fill="none" stroke-linecap="round" stroke-width="16">
    <path d="M86,204 C118,204 126,228 158,228" stroke="#9adbfb"/>
    <path d="M86,308 C118,308 126,284 158,284" stroke="#daff58"/>
    <path d="M354,256 H426" stroke="#ff5e44"/>
  </g>

  <!-- neighbour port stubs -->
  <g stroke="#1a1a1a" stroke-width="3">
    <circle cx="86" cy="204" r="11" fill="#9adbfb"/>
    <circle cx="86" cy="308" r="11" fill="#daff58"/>
    <circle cx="426" cy="256" r="11" fill="#ff5e44"/>
  </g>

  <!-- node body -->
  <rect x="158" y="150" width="196" height="212" rx="30" fill="url(#node)" stroke="#525252" stroke-width="2"/>
  <g clip-path="url(#nodeclip)">
    <rect x="158" y="150" width="196" height="42" fill="url(#header)"/>
    <circle cx="336" cy="171" r="5.5" fill="#fff" fill-opacity="0.85"/>
  </g>
  <!-- content hint -->
  <g fill="#e2dfd3" fill-opacity="0.16">
    <rect x="184" y="214" width="104" height="11" rx="5.5"/>
    <rect x="184" y="256" width="72" height="11" rx="5.5"/>
    <rect x="184" y="312" width="92" height="11" rx="5.5"/>
  </g>

  <!-- ports: 2 inputs (left), 1 output (right) -->
  <g stroke="#2c2c2c" stroke-width="3">
    <circle cx="158" cy="228" r="16" fill="#9adbfb"/>
    <circle cx="158" cy="284" r="16" fill="#daff58"/>
    <circle cx="354" cy="256" r="16" fill="#ff5e44"/>
  </g>
</svg>
